# Blender 4.2.1 LTS
# www.blender.org
mtllib rock_test_LP.mtl
o Cube
v 0.296247 -0.778519 0.402061
v -0.648176 0.360241 0.256567
v -0.727222 -0.725653 -0.064487
v 1.099927 -0.297757 -0.632830
v 0.831424 -0.607701 -0.653503
v -0.677262 -0.347910 0.646208
v 0.956496 -0.518974 0.201702
v -0.464165 -0.063445 -0.541783
v -0.686458 -0.377326 -0.411431
v 0.129247 0.570348 0.466902
v -0.265303 0.556837 0.439729
v 1.032853 0.242790 0.034594
v -0.692298 -0.669880 0.504266
v -0.136008 -0.563488 0.819221
v 0.108095 0.290823 -0.545826
v 0.929037 0.086163 -0.554221
v 0.762644 -0.816371 -0.067861
v 0.058937 0.504519 -0.268316
v 0.472154 -0.073175 0.764888
v 0.615134 0.265383 0.563882
v -0.065198 0.165926 0.910289
v -0.969554 -0.359120 0.232671
v -0.852093 -0.026901 -0.024752
v 0.189902 -0.768354 -0.545894
v 0.235718 -0.957127 -0.050800
v -0.310964 -0.865804 0.443506
v 1.242429 -0.463182 -0.363289
v 1.222006 0.140288 -0.302293
v 1.160859 0.026801 0.079584
v -0.057207 -0.439563 -0.714470
v -0.058612 -0.074264 -0.686382
v 0.837919 -0.221473 -0.738870
vn 0.3149 -0.7729 0.5510
vn -0.7074 0.6988 0.1063
vn -0.6245 -0.7266 -0.2864
vn 0.6481 -0.0391 -0.7605
vn 0.2966 -0.6063 -0.7379
vn -0.6365 0.0106 0.7712
vn 0.6810 -0.4699 0.5617
vn -0.5496 0.3419 -0.7622
vn -0.7008 -0.2160 -0.6799
vn 0.1647 0.9289 0.3316
vn -0.3635 0.8740 0.3224
vn 0.5722 0.7938 0.2059
vn -0.6048 -0.6210 0.4985
vn 0.0012 -0.4698 0.8828
vn -0.0975 0.6830 -0.7239
vn 0.3056 0.5921 -0.7456
vn 0.4305 -0.8983 0.0876
vn -0.0920 0.9186 -0.3844
vn 0.4823 -0.0633 0.8737
vn 0.5435 0.5372 0.6451
vn -0.1096 0.3414 0.9335
vn -0.9910 -0.0568 0.1215
vn -0.8505 0.4163 -0.3215
vn -0.0788 -0.7824 -0.6177
vn 0.0607 -0.9972 -0.0441
vn -0.1603 -0.9218 0.3531
vn 0.8901 -0.4341 -0.1388
vn 0.7919 0.5604 -0.2424
vn 0.8689 0.1642 0.4669
vn -0.2473 -0.3185 -0.9151
vn -0.1886 0.2153 -0.9582
vn 0.1899 0.1421 -0.9715
vt 0.289803 0.433750
vt 0.322120 0.327360
vt 0.386663 0.420623
vt 0.709508 0.537944
vt 0.749898 0.389736
vt 0.830113 0.375599
vt 0.631173 0.570213
vt 0.677819 0.497898
vt 0.677691 0.176905
vt 0.695272 0.252189
vt 0.576164 0.311722
vt 0.705534 0.315410
vt 0.792973 0.257206
vt 0.340966 0.191253
vt 0.480173 0.306962
vt 0.472852 0.449681
vt 0.371381 0.527745
vt 0.313111 0.497215
vt 0.689522 0.657684
vt 0.232711 0.325038
vt 0.631512 0.088464
vt 0.704535 0.080605
vt 0.292926 0.575346
vt 0.220954 0.513163
vt 0.257771 0.222175
vt 0.275942 0.087807
vt 0.467673 0.895244
vt 0.286798 0.905756
vt 0.287639 0.848188
vt 0.579294 0.849359
vt 0.678214 0.821202
vt 0.602257 0.920854
vt 0.620685 0.789399
vt 0.591172 0.710874
vt 0.655697 0.694428
vt 0.563353 0.780055
vt 0.420346 0.839171
vt 0.159055 0.365299
vt 0.414102 0.784630
vt 0.326740 0.780338
vt 0.428021 0.703424
vt 0.409770 0.644410
vt 0.312201 0.689794
vt 0.556604 0.088739
vt 0.377683 0.127326
vt 0.761527 0.113036
vt 0.520049 0.948184
vt 0.172624 0.585497
vt 0.258555 0.640007
vt 0.178516 0.649863
s 1
usemtl Material
f 26/1/26 1/2/1 14/3/14
f 29/4/29 20/5/20 19/6/19
f 29/4/29 28/7/28 12/8/12
f 2/9/2 11/10/11 18/11/18
f 20/5/20 10/12/10 21/13/21
f 7/14/7 19/15/19 14/3/14
f 14/3/14 21/16/21 6/17/6
f 12/8/12 20/5/20 29/4/29
f 14/3/14 6/17/6 13/18/13
f 28/7/28 29/4/29 27/19/27
f 25/20/25 1/2/1 26/1/26
f 2/9/2 23/21/23 22/22/22
f 13/18/13 22/23/22 3/24/3
f 13/18/13 3/24/3 26/1/26
f 7/14/7 17/25/17 27/26/27
f 1/2/1 25/20/25 17/25/17
f 24/27/24 3/28/3 9/29/9
f 5/30/5 27/31/27 17/32/17
f 4/33/4 27/31/27 5/30/5
f 16/34/16 28/35/28 4/33/4
f 32/36/32 16/34/16 4/33/4
f 24/27/24 30/37/30 5/30/5
f 24/38/24 25/20/25 3/24/3
f 31/39/31 8/40/8 15/41/15
f 19/6/19 20/5/20 21/13/21
f 28/35/28 16/34/16 15/41/15 18/42/18
f 12/8/12 28/7/28 18/11/18 10/12/10
f 18/42/18 15/41/15 8/40/8 2/43/2
f 8/40/8 31/39/31 30/37/30 9/29/9
f 18/11/18 11/10/11 10/12/10
f 8/44/8 23/21/23 2/9/2
f 27/26/27 29/45/29 7/14/7
f 20/5/20 12/8/12 10/12/10
f 14/3/14 19/15/19 21/16/21
f 26/1/26 14/3/14 13/18/13
f 21/13/21 10/12/10 11/10/11
f 21/13/21 11/10/11 2/9/2 6/46/6
f 1/2/1 7/14/7 14/3/14
f 2/9/2 22/22/22 6/46/6
f 25/47/25 24/27/24 5/30/5 17/32/17
f 7/14/7 29/45/29 19/15/19
f 13/18/13 6/17/6 22/23/22
f 3/24/3 22/23/22 9/48/9
f 5/30/5 30/37/30 31/39/31 32/36/32
f 32/36/32 4/33/4 5/30/5
f 24/27/24 9/29/9 30/37/30
f 3/24/3 25/20/25 26/1/26
f 16/34/16 32/36/32 31/39/31 15/41/15
f 7/14/7 1/2/1 17/25/17
f 4/33/4 28/35/28 27/31/27
f 9/48/9 22/23/22 23/49/23 8/50/8
